<svg width="201" height="75" viewBox="0 0 201 75" fill="none" xmlns="http://www.w3.org/2000/svg">
<ellipse cx="100.726" cy="37.0159" rx="99.9326" ry="25" fill="#FF9C00"/>
<path d="M197.048 24.8674C197.443 28.0136 195.328 31.4629 190.808 35.0273C186.316 38.5696 179.584 42.115 171.091 45.4561C154.111 52.1354 130.199 57.9566 103.383 61.3249C76.5673 64.6931 51.9585 64.9665 33.8545 62.6939C24.7986 61.5572 17.3992 59.7868 12.1709 57.4654C6.90996 55.1294 4.00697 52.3105 3.61179 49.1643C3.21661 46.0182 5.33228 42.5689 9.85212 39.0044C14.3439 35.4621 21.0756 31.9167 29.569 28.5757C46.5486 21.8963 70.4606 16.0752 97.2766 12.7069C124.093 9.33861 148.701 9.06524 166.805 11.3378C175.861 12.4746 183.261 14.245 188.489 16.5664C193.75 18.9023 196.653 21.7213 197.048 24.8674Z" stroke="white"/>
</svg>
