<svg width="30" height="18" viewBox="0 0 30 18" fill="none" xmlns="http://www.w3.org/2000/svg">
<path d="M6.66667 4.00004V0.666702H30V4.00004H6.66667ZM6.66667 10.6667V7.33337H30V10.6667H6.66667ZM6.66667 17.3334V14H30V17.3334H6.66667ZM1.66667 4.00004C1.19444 4.00004 0.798611 3.84031 0.479167 3.52087C0.159722 3.20142 0 2.80559 0 2.33337C0 1.86115 0.159722 1.46531 0.479167 1.14587C0.798611 0.826425 1.19444 0.666702 1.66667 0.666702C2.13889 0.666702 2.53472 0.826425 2.85417 1.14587C3.17361 1.46531 3.33333 1.86115 3.33333 2.33337C3.33333 2.80559 3.17361 3.20142 2.85417 3.52087C2.53472 3.84031 2.13889 4.00004 1.66667 4.00004ZM1.66667 10.6667C1.19444 10.6667 0.798611 10.507 0.479167 10.1875C0.159722 9.86809 0 9.47226 0 9.00004C0 8.52781 0.159722 8.13198 0.479167 7.81254C0.798611 7.49309 1.19444 7.33337 1.66667 7.33337C2.13889 7.33337 2.53472 7.49309 2.85417 7.81254C3.17361 8.13198 3.33333 8.52781 3.33333 9.00004C3.33333 9.47226 3.17361 9.86809 2.85417 10.1875C2.53472 10.507 2.13889 10.6667 1.66667 10.6667ZM1.66667 17.3334C1.19444 17.3334 0.798611 17.1736 0.479167 16.8542C0.159722 16.5348 0 16.1389 0 15.6667C0 15.1945 0.159722 14.7986 0.479167 14.4792C0.798611 14.1598 1.19444 14 1.66667 14C2.13889 14 2.53472 14.1598 2.85417 14.4792C3.17361 14.7986 3.33333 15.1945 3.33333 15.6667C3.33333 16.1389 3.17361 16.5348 2.85417 16.8542C2.53472 17.1736 2.13889 17.3334 1.66667 17.3334Z" fill="white"/>
</svg>
